<svg width="140" height="28" viewBox="0 0 140 28" fill="none" xmlns="http://www.w3.org/2000/svg">
<g clip-path="url(#clip0_11291_12112)">
<path d="M7.28123 0.829346C9.32664 0.829346 11.1141 1.23475 12.6435 2.04554C14.173 2.85633 15.3523 3.99881 16.1815 5.47299C17.0292 6.92873 17.453 8.61482 17.453 10.5312C17.453 12.4292 17.0292 14.1153 16.1815 15.5895C15.3523 17.0637 14.1638 18.2061 12.6159 19.0169C11.0864 19.8277 9.30822 20.2331 7.28123 20.2331H0.0117188V0.829346H7.28123ZM6.97718 16.1423C8.76462 16.1423 10.1559 15.654 11.1509 14.6774C12.146 13.7007 12.6435 12.3187 12.6435 10.5312C12.6435 8.74381 12.146 7.35256 11.1509 6.35749C10.1559 5.36243 8.76462 4.86489 6.97718 4.86489H4.73828V16.1423H6.97718Z" fill="#DDE0F4"/>
<path d="M27.1265 20.4543C25.6155 20.4543 24.2519 20.1318 23.0357 19.4869C21.838 18.8419 20.889 17.9205 20.1887 16.7228C19.5069 15.525 19.166 14.1246 19.166 12.5214C19.166 10.9367 19.5161 9.54541 20.2164 8.34764C20.9166 7.13145 21.8748 6.20088 23.091 5.55593C24.3072 4.91097 25.6708 4.5885 27.1818 4.5885C28.6929 4.5885 30.0565 4.91097 31.2727 5.55593C32.4888 6.20088 33.4471 7.13145 34.1473 8.34764C34.8475 9.54541 35.1976 10.9367 35.1976 12.5214C35.1976 14.1061 34.8383 15.5066 34.1196 16.7228C33.4194 17.9205 32.452 18.8419 31.2174 19.4869C30.0012 20.1318 28.6376 20.4543 27.1265 20.4543ZM27.1265 16.3635C28.0295 16.3635 28.7942 16.0318 29.4207 15.3684C30.0657 14.705 30.3882 13.756 30.3882 12.5214C30.3882 11.2868 30.0749 10.3378 29.4484 9.6744C28.8403 9.01102 28.0848 8.67933 27.1818 8.67933C26.2605 8.67933 25.4957 9.01102 24.8876 9.6744C24.2795 10.3193 23.9755 11.2683 23.9755 12.5214C23.9755 13.756 24.2703 14.705 24.86 15.3684C25.4681 16.0318 26.2236 16.3635 27.1265 16.3635Z" fill="#DDE0F4"/>
<path d="M55.0713 20.2331H50.3447L42.4395 8.2647V20.2331H37.7129V0.829346H42.4395L50.3447 12.8531V0.829346H55.0713V20.2331Z" fill="#DDE0F4"/>
<path d="M65.5191 20.4543C64.0081 20.4543 62.6445 20.1318 61.4283 19.4869C60.2305 18.8419 59.2815 17.9205 58.5813 16.7228C57.8995 15.525 57.5586 14.1246 57.5586 12.5214C57.5586 10.9367 57.9087 9.54541 58.6089 8.34764C59.3092 7.13145 60.2674 6.20088 61.4836 5.55593C62.6998 4.91097 64.0634 4.5885 65.5744 4.5885C67.0854 4.5885 68.449 4.91097 69.6652 5.55593C70.8814 6.20088 71.8396 7.13145 72.5399 8.34764C73.2401 9.54541 73.5902 10.9367 73.5902 12.5214C73.5902 14.1061 73.2309 15.5066 72.5122 16.7228C71.812 17.9205 70.8446 18.8419 69.6099 19.4869C68.3938 20.1318 67.0301 20.4543 65.5191 20.4543ZM65.5191 16.3635C66.4221 16.3635 67.1868 16.0318 67.8133 15.3684C68.4583 14.705 68.7807 13.756 68.7807 12.5214C68.7807 11.2868 68.4675 10.3378 67.8409 9.6744C67.2328 9.01102 66.4773 8.67933 65.5744 8.67933C64.653 8.67933 63.8883 9.01102 63.2802 9.6744C62.6721 10.3193 62.3681 11.2683 62.3681 12.5214C62.3681 13.756 62.6629 14.705 63.2526 15.3684C63.8607 16.0318 64.6162 16.3635 65.5191 16.3635Z" fill="#DDE0F4"/>
<path d="M84.7022 16.2253V20.2332H82.2975C80.5837 20.2332 79.2478 19.8186 78.2895 18.9894C77.3313 18.1417 76.8522 16.7689 76.8522 14.8709V8.73466H74.9727V4.80968H76.8522V1.05054H81.5788V4.80968H84.6745V8.73466H81.5788V14.9262C81.5788 15.3869 81.6894 15.7185 81.9105 15.9212C82.1316 16.1239 82.5001 16.2253 83.0161 16.2253H84.7022Z" fill="#DDE0F4"/>
<path d="M102.116 7.07615C102.116 8.20021 101.858 9.23213 101.342 10.1719C100.826 11.0933 100.034 11.8396 98.9649 12.4108C97.8961 12.9821 96.5693 13.2677 94.9846 13.2677H92.0547V20.2331H87.3281V0.829346H94.9846C96.5325 0.829346 97.8408 1.09654 98.9096 1.63093C99.9784 2.16532 100.78 2.9024 101.314 3.84219C101.849 4.78197 102.116 5.85996 102.116 7.07615ZM94.6253 9.50853C95.5282 9.50853 96.2008 9.29662 96.6431 8.87279C97.0853 8.44897 97.3064 7.85009 97.3064 7.07615C97.3064 6.30221 97.0853 5.70333 96.6431 5.27951C96.2008 4.85568 95.5282 4.64377 94.6253 4.64377H92.0547V9.50853H94.6253Z" fill="#DDE0F4"/>
<path d="M103.637 12.4937C103.637 10.909 103.932 9.51776 104.521 8.32C105.129 7.12224 105.949 6.20088 106.981 5.55593C108.013 4.91097 109.165 4.5885 110.436 4.5885C111.524 4.5885 112.473 4.80962 113.283 5.25188C114.113 5.69413 114.748 6.27459 115.191 6.99324V4.80963H119.917V20.2332H115.191V18.0495C114.73 18.7682 114.085 19.3487 113.256 19.7909C112.445 20.2332 111.496 20.4543 110.409 20.4543C109.156 20.4543 108.013 20.1318 106.981 19.4869C105.949 18.8235 105.129 17.8929 104.521 16.6951C103.932 15.4789 103.637 14.0785 103.637 12.4937ZM115.191 12.5214C115.191 11.342 114.859 10.4115 114.195 9.72966C113.551 9.04785 112.758 8.70695 111.818 8.70695C110.879 8.70695 110.077 9.04785 109.414 9.72966C108.769 10.393 108.446 11.3144 108.446 12.4937C108.446 13.6731 108.769 14.6129 109.414 15.3131C110.077 15.9949 110.879 16.3358 111.818 16.3358C112.758 16.3358 113.551 15.9949 114.195 15.3131C114.859 14.6313 115.191 13.7007 115.191 12.5214Z" fill="#DDE0F4"/>
<path d="M139.1 4.80969L129.426 27.558H124.34L127.878 19.708L121.604 4.80969H126.883L130.449 14.4563L133.987 4.80969H139.1Z" fill="#DDE0F4"/>
</g>
<defs>
<clipPath id="clip0_11291_12112">
<rect width="139.088" height="26.7286" fill="white" transform="translate(0.0117188 0.829346)"/>
</clipPath>
</defs>
</svg>
